<?xml version="1.0" encoding="UTF-8"?>
<svg id="Layer_1" data-name="Layer 1" xmlns="http://www.w3.org/2000/svg" viewBox="0 0 1878.57 1619.32">
  <defs>
    <style>
      .cls-1 {
        fill: #fad512;
        stroke-width: 0px;
      }
    </style>
  </defs>
  <path class="cls-1" d="m1314.64,340.32c14.32,2.71,27.48-2.32,40.26-8.13,6.97-3.09,13.93-6.19,22.84-9.68-3.1-3.48-5.81-8.51-10.06-10.84-15.48-8.52-31.35-16.26-47.22-23.61-18.58-8.52-38.32-8.13-58.45-7.35-3.1.39-6.58,1.55-11.22,2.71,9.29,4.26,17.03,7.74,25.54,12,2.71,25.16,14.71,40.25,38.32,44.9Zm6.08-35.36c6.82,4.14,13.61,8.25,20.38,12.37-5.18,8.28-12.96,10.41-19.86,5.36-6.31-4.63-6.4-10-.53-17.73Z"/>
  <path class="cls-1" d="m1877.77,224.87c-1.86-29.14-5.84-59.95-16.47-86.21-29.98-74.03-89.4-108.84-156.47-126.95-32.66-8.82-67.47-10.8-101.32-10.85C1104.07.04,604.64.07,105.22,0,99.75,0,88.94,0,88.94,0c0,0,64.37,49.38,85.99,72.45,45.51,48.55,61.64,112.06,68.97,179.03,6.2,56.65-5.94,111.8-14.57,166.84-8.48,54.07-90.56,467.57-96.64,501.68,29.98,5.99,59.22,9.08,93.17,11.74,3.48.39,6.97.77,10.45.77,60.38,3.48,119.6-1.93,178.43-16.64,94.05-23.61,178.82-68.12,260.1-120.76,39.48-25.54,80.12-50.32,121.53-72.77,51.87-27.87,109.15-39.09,166.44-50.32,43.35-8.9,77.8-29.8,88.64-75.86,4.64-20.9,5.42-42.57,5.03-64.25-1.16-44.13-5.81-88.25,3.87-131.99,17.03-79.73,63.48-130.82,143.6-149.4,17.81-4.26,36.77-5.42,53.03-12.77,29.03-12.77,55.74-12,83.22,2.32,34.45,18.19,70.44,31.35,107.99,41.8,24.77,6.58,49.54,13.94,73.54,22.84,49.15,18.19,75.47,73.93,59.99,122.7-2.32,6.97-5.03,10.06-13.16,9.29-13.55-1.55-27.48-1.16-41.03-2.71-41.42-4.64-83.22-8.9-124.63-15.09-39.87-6.19-79.73-15.1-119.6-20.52-17.03-2.32-34.45.39-51.86.78,0,0,222.56,51.48,339.45,49.15-12.39,20.9-29.03,34.06-49.93,39.48-19.74,5.03-40.64,8.9-60.77,9.68-56.51,1.55-113.02,1.16-169.53,1.55-28.64.39-56.12-4.26-80.89-19.35-12.39-7.35-37.55-24-38.32-23.22,13.16,19.35,25.16,39.87,39.48,58.45,10.84,14.71,21.67,28.64,26.71,46.45,14.32,49.93,13.16,100.63,5.03,151.34-5.42,34.06-13.55,68.12-20.13,102.18-9.68,49.93-32.12,92.51-73.93,123.47-14.32,10.84-30.19,18.58-49.16,22.83,5.03-44.9,32.13-87.09,7.35-133.92-.77,32.9-11.22,61.16-30.58,85.54-11.61,14.71-24.38,28.26-36.77,42.58-3.87,4.26-7.35,8.9-11.61,14.32,5.03,3.48,8.9,6.19,12.77,8.9,17.81,10.84,35.61,22.45,53.8,32.9,44.13,24.38,63.87,66.57,78.57,111.09,5.42,15.87,6.58,34.06,6.97,50.7.39,23.61-25.16,47.22-47.99,47.99,26.71-39.48,29.8-73.54,8.9-95.22-4.64,38.71-20.9,57.67-51.48,57.67,3.1-3.87,5.42-7.35,8.13-10.45,34.06-42.58,19.35-98.31-30.96-117.28-32.13-12-64.25-23.61-96.76-35.22-11.23-3.87-18.97-11.23-20.13-23.61-.78-9.68-.78-19.74.77-29.42,5.8-47.99,43.74-144.76,42.58-145.53-13.55,20.51-28.25,40.25-40.64,61.54-15.87,27.48-26.71,56.9-30.19,89.02-3.48,28.64,3.87,54.19,32.13,71.99-22.83,6.97-42.19,13.16-63.48,19.35-5.42-38.71-13.93-75.48-32.51-109.15-18.97-33.67-42.96-62.32-77.02-82.06,4.26,6.58,8.9,12,13.16,17.81,4.64,6.19,8.9,12.38,12.77,18.58,42.19,71.22,60.77,148.24,60.38,230.69,0,32.51-12.77,58.44-39.87,76.64-14.71,10.45-29.8,20.51-45.29,29.42-36.77,20.9-74.7,41.03-111.47,62.7-27.87,16.26-50.7,38.32-53.03,72.77-1.93,33.67-1.93,67.35-.39,101.02,1.94,29.8,19.35,46.45,48.77,51.87,27.48,4.64,44.51,20.9,50.32,47.22-27.87-2.32-56.51-5.42-84.77-6.97-8.51-.39-12.77-3.1-16.64-10.84-6.19-14.32-13.93-27.48-21.29-41.03-.78.39-1.94.78-2.71,1.55,3.1,17.03,6.58,34.06,10.06,51.09-6.97,1.16-12.77,2.71-18.58,3.09-25.55,3.48-42.97-10.84-42.97-36.77-.38-23.22,1.16-46.45,2.71-69.28,3.48-40.64,8.13-81.28,11.23-121.54,1.55-24,8.51-43.35,27.09-59.99,15.87-14.32,29.41-31.74,42.96-48.38,8.9-11.22,16.64-23.61,25.16-35.22,20.52-27.87,46.83-46.83,83.22-54.96-15.87-14.71-30.58-27.09-44.13-41.41-13.16-13.55-26.71-27.87-37.54-43.35-11.61-15.87-20.9-32.9-29.03-50.7-8.13-17.03-13.16-35.61-20.13-55.74-6.19,29.03-3.87,55.74,1.93,83.61-125.79,10.45-248.1,3.1-366.93-27.48-38.27-9.72-76.76-22.16-114.76-37.12C112.61,1026.08,5.72,1574.88.56,1602.28c-2.33,12.39,2.65,17.07,14.49,17.04,139.97-.33,1670.2-.59,1728.06-.2,3.82.02,7.65-2.9,11.48-4.46-1.32-3.83-1.99-8.17-4.06-11.41-28.97-45.26-58.3-90.22-87.19-135.54-31.7-49.72-62.71-99.97-94.59-149.54-46.82-72.82-94.21-145.17-141.16-217.89-9.58-14.84-4.52-26.53,11.94-27.05,34.71-1.09,68.14-7.2,101.41-19.56,51.82-19.25,97.04-49.41,136.09-91.06,53.28-56.82,90.83-124.53,109.1-204.34,11.33-49.51,21.32-99.42,31.33-149.29,9.91-49.38,19.14-98.92,28.58-148.41,3.61-18.97,6-38.3,10.59-56.97,14.37-58.58,25.02-117.93,21.14-178.74ZM720.14,1552.21c-6.41-15.05-18.96-24.95-37.64-29.27,33.04-6.13,56.18,11.99,72.91,55.48-14.22-6.97-28.44-10.32-35.27-26.21Zm292.04.14c-23.84-.84-41.12-10.17-49.35-33.87-4.6-13.1-9.9-26.07-15.47-40.43-8.08,12.96-13.52,27.32-29.13,33.18,1.67-9.06,3.07-17.43,4.6-25.93,4.04-23.98-3.9-44.33-18.26-63.29-14.64-19.37-28.99-39.03-42.52-59.1-12.27-18.12-47.1-74.78-32.18-90.12,35.69-36.8,66.06-50.23,100.49-88.14,20.49-22.58,65.85-67.24,58.53-95.81,24.74,19.51,20.92,106.51.85,130.49-17.01,20.35-37.08,38.19-55.34,57.43-10.18,10.74-21.89,20.91-28.44,33.59-4.46,8.37-5.02,23.14-.56,31.09,28.16,49.76,59.11,97.86,100.64,138,14.5,14.08,32.06,22.86,51.58,26.21,30.39,5.44,45.44,26.49,57.15,51.16-34.15-1.54-68.44-3.35-102.59-4.46Zm102.18-30.67c-8.64-16.17-22.86-26.48-43.35-27.88,29.27-12.13,67.61,11.71,80.29,49.49-14.5-4.6-28.72-5.99-36.94-21.61Zm163.24-330.51c14.5-32.06,17.84-63.56-1.67-94.09-3.77,12.96-6.27,26.21-11.43,38.33-5.44,12.41-15.47,20.91-31.78,24.39,4.32-9.34,7.67-16.59,11.01-23.84,9.48-20.35,11.71-40.98,3.48-62.31-5.44-14.08-14.91-23.7-29.27-28.16-17.84-5.44-35.83-10.73-53.53-16.31-5.02-1.67-9.76-4.32-16.59-7.39,10.73-12.27,19.79-23.28,29.69-33.6,1.39-1.53,5.85-1.11,8.5-.14,19.65,7.11,39.03,15.19,58.96,22.02,22.02,7.67,37.22,21.61,45.72,43.49,9.9,25.37,22.16,49.91,23.42,77.92,1.12,28.02-13.1,46-36.52,59.66Z"/>
  <path class="cls-1" d="m1519.94,348c10.38,7.98,21.13,15.85,31.52,23.83,1.27-23.15-30.65-24.93-31.52-23.83Z"/>
</svg>