<?xml version="1.0" encoding="UTF-8"?>
<svg id="Layer_1" data-name="Layer 1" xmlns="http://www.w3.org/2000/svg" viewBox="0 0 1878.57 1619.32">
  <defs>
    <style>
      .cls-1 {
        fill: #fad512;
        stroke-width: 0px;
      }
    </style>
  </defs>
  <g>
    <path class="cls-1" d="m364.44,680.4c3.93.74,7.54-.64,11.05-2.23,1.91-.85,3.83-1.7,6.27-2.66-.85-.96-1.59-2.34-2.76-2.98-4.25-2.34-8.61-4.46-12.96-6.48-5.1-2.34-10.52-2.23-16.05-2.02-.85.11-1.81.42-3.08.74,2.55,1.17,4.68,2.12,7.01,3.29.74,6.91,4.04,11.05,10.52,12.33Zm1.67-9.71c1.87,1.14,3.74,2.27,5.6,3.4-1.42,2.27-3.56,2.86-5.45,1.47-1.73-1.27-1.76-2.75-.14-4.87Z"/>
    <path class="cls-1" d="m519.04,648.7c-.51-8-1.6-16.46-4.52-23.67-8.23-20.32-24.54-29.88-42.96-34.85-8.97-2.42-18.52-2.96-27.82-2.98-137.11-.22-274.22-.22-411.34-.23-1.5,0-4.47,0-4.47,0,0,0,17.67,13.56,23.61,19.89,12.49,13.33,16.92,30.76,18.94,49.15,1.7,15.55-1.63,30.69-4,45.8-2.33,14.85-24.86,128.37-26.53,137.73,8.23,1.65,16.26,2.49,25.58,3.22.96.11,1.91.21,2.87.21,16.58.96,32.83-.53,48.99-4.57,25.82-6.48,49.09-18.7,71.41-33.15,10.84-7.01,22-13.81,33.37-19.98,14.24-7.65,29.97-10.73,45.69-13.81,11.9-2.44,21.36-8.18,24.33-20.83,1.27-5.74,1.49-11.69,1.38-17.64-.32-12.11-1.59-24.23,1.06-36.24,4.68-21.89,17.43-35.92,39.42-41.02,4.89-1.17,10.09-1.49,14.56-3.51,7.97-3.51,15.3-3.29,22.85.64,9.46,4.99,19.34,8.61,29.65,11.48,6.8,1.81,13.6,3.83,20.19,6.27,13.49,4.99,20.72,20.3,16.47,33.68-.64,1.91-1.38,2.76-3.61,2.55-3.72-.42-7.54-.32-11.26-.74-11.37-1.28-22.85-2.44-34.22-4.14-10.95-1.7-21.89-4.14-32.84-5.63-4.68-.64-9.46.11-14.24.21,0,0,61.1,14.13,93.19,13.49-3.4,5.74-7.97,9.35-13.71,10.84-5.42,1.38-11.16,2.44-16.68,2.66-15.51.43-31.03.32-46.54.43-7.86.11-15.41-1.17-22.21-5.31-3.4-2.02-10.31-6.59-10.52-6.38,3.61,5.31,6.91,10.95,10.84,16.05,2.98,4.04,5.95,7.86,7.33,12.75,3.93,13.71,3.61,27.63,1.38,41.55-1.49,9.35-3.72,18.7-5.53,28.05-2.66,13.71-8.82,25.4-20.3,33.9-3.93,2.97-8.29,5.1-13.5,6.27,1.38-12.33,8.82-23.91,2.02-36.77-.21,9.03-3.08,16.79-8.39,23.48-3.19,4.04-6.69,7.76-10.09,11.69-1.06,1.17-2.02,2.44-3.19,3.93,1.38.96,2.44,1.7,3.51,2.44,4.89,2.98,9.78,6.16,14.77,9.03,12.11,6.69,17.53,18.28,21.57,30.5,1.49,4.36,1.81,9.35,1.91,13.92.11,6.48-6.91,12.96-13.18,13.18,7.33-10.84,8.18-20.19,2.44-26.14-1.28,10.63-5.74,15.83-14.13,15.83.85-1.06,1.49-2.02,2.23-2.87,9.35-11.69,5.31-26.99-8.5-32.2-8.82-3.29-17.64-6.48-26.57-9.67-3.08-1.06-5.21-3.08-5.53-6.48-.21-2.66-.21-5.42.21-8.08,1.59-13.18,12.01-39.74,11.69-39.95-3.72,5.63-7.76,11.05-11.16,16.9-4.36,7.54-7.33,15.62-8.29,24.44-.96,7.86,1.06,14.88,8.82,19.76-6.27,1.91-11.58,3.61-17.43,5.31-1.49-10.63-3.83-20.72-8.93-29.97-5.21-9.24-11.79-17.11-21.15-22.53,1.17,1.81,2.44,3.29,3.61,4.89,1.28,1.7,2.44,3.4,3.51,5.1,11.58,19.55,16.68,40.7,16.58,63.33,0,8.93-3.51,16.04-10.95,21.04-4.04,2.87-8.18,5.63-12.43,8.08-10.09,5.74-20.51,11.26-30.6,17.21-7.65,4.46-13.92,10.52-14.56,19.98-.53,9.24-.53,18.49-.11,27.73.53,8.18,5.31,12.75,13.39,14.24,7.54,1.28,12.22,5.74,13.81,12.96-7.65-.64-15.51-1.49-23.27-1.91-2.34-.11-3.51-.85-4.57-2.98-1.7-3.93-3.83-7.54-5.84-11.26-.21.11-.53.21-.74.43.85,4.68,1.81,9.35,2.76,14.03-1.91.32-3.51.74-5.1.85-7.01.96-11.8-2.97-11.8-10.09-.11-6.38.32-12.75.74-19.02.96-11.16,2.23-22.31,3.08-33.37.42-6.59,2.34-11.9,7.44-16.47,4.36-3.93,8.08-8.71,11.79-13.28,2.44-3.08,4.57-6.48,6.91-9.67,5.63-7.65,12.86-12.86,22.85-15.09-4.36-4.04-8.39-7.44-12.11-11.37-3.61-3.72-7.33-7.65-10.31-11.9-3.19-4.36-5.74-9.03-7.97-13.92-2.23-4.68-3.61-9.78-5.53-15.3-1.7,7.97-1.06,15.3.53,22.95-34.54,2.87-68.11.85-100.74-7.54-10.51-2.67-21.07-6.08-31.51-10.19-2.45,12.61-31.8,163.27-33.21,170.79-.64,3.4.73,4.69,3.98,4.68,38.43-.09,458.53-.16,474.42-.06,1.05,0,2.1-.8,3.15-1.22-.36-1.05-.55-2.24-1.12-3.13-7.95-12.42-16.01-24.77-23.94-37.21-8.7-13.65-17.22-27.44-25.97-41.06-12.85-19.99-25.87-39.86-38.75-59.82-2.63-4.07-1.24-7.28,3.28-7.42,9.53-.3,18.71-1.98,27.84-5.37,14.23-5.29,26.64-13.56,37.36-25,14.63-15.6,24.94-34.19,29.95-56.1,3.11-13.59,5.85-27.29,8.6-40.98,2.72-13.56,5.26-27.16,7.84-40.74.99-5.21,1.65-10.51,2.91-15.64,3.95-16.08,6.87-32.38,5.8-49.07Zm-317.81,364.4c-1.76-4.13-5.2-6.85-10.33-8.04,9.07-1.68,15.42,3.29,20.02,15.23-3.9-1.91-7.81-2.83-9.68-7.2Zm80.17.04c-6.54-.23-11.29-2.79-13.55-9.3-1.26-3.6-2.72-7.16-4.25-11.1-2.22,3.56-3.71,7.5-8,9.11.46-2.49.84-4.78,1.26-7.12,1.11-6.58-1.07-12.17-5.01-17.37-4.02-5.32-7.96-10.71-11.67-16.23-3.37-4.98-12.93-20.53-8.83-24.74,9.8-10.1,18.14-13.79,27.59-24.2,5.63-6.2,18.08-18.46,16.07-26.3,6.79,5.36,5.74,29.24.23,35.82-4.67,5.59-10.18,10.49-15.19,15.77-2.79,2.95-6.01,5.74-7.81,9.22-1.22,2.3-1.38,6.35-.15,8.53,7.73,13.66,16.23,26.87,27.63,37.89,3.98,3.87,8.8,6.28,14.16,7.19,8.34,1.49,12.48,7.27,15.69,14.05-9.38-.42-18.79-.92-28.17-1.23Zm28.05-8.42c-2.37-4.44-6.28-7.27-11.9-7.65,8.04-3.33,18.56,3.21,22.04,13.59-3.98-1.26-7.88-1.65-10.14-5.93Zm44.81-90.74c3.98-8.8,4.9-17.45-.46-25.83-1.03,3.56-1.72,7.19-3.14,10.52-1.49,3.41-4.25,5.74-8.73,6.7,1.19-2.56,2.1-4.55,3.02-6.54,2.6-5.59,3.21-11.25.96-17.11-1.49-3.87-4.09-6.51-8.04-7.73-4.9-1.49-9.84-2.95-14.7-4.48-1.38-.46-2.68-1.19-4.55-2.03,2.95-3.37,5.43-6.39,8.15-9.22.38-.42,1.61-.31,2.33-.04,5.4,1.95,10.72,4.17,16.19,6.05,6.05,2.11,10.22,5.93,12.55,11.94,2.72,6.97,6.08,13.7,6.43,21.39.31,7.69-3.6,12.63-10.03,16.38Z"/>
    <path class="cls-1" d="m420.8,682.5c2.85,2.19,5.8,4.35,8.65,6.54.35-6.36-8.42-6.84-8.65-6.54Z"/>
  </g>
  <path class="cls-1" d="m1330.35,811.2c1.85,0,2.43.73,2.07,2.41-1.34,6.17-2.71,12.34-4.06,18.51-1.47,6.75-2.95,13.51-4.39,20.27-.75,3.52-1.36,7.08-2.23,10.57-.17.69-1.18,1.48-1.93,1.66-1.19.28-2.49.08-3.75.08-31.22,0-62.44-.01-93.66,0-1.03,0-2.09-.03-3.08.2-.53.13-.93.79-1.38,1.21.41.44.74,1.14,1.24,1.29,6.35,1.9,12.73,3.72,19.09,5.58,1.62.47,3.22,1.05,4.83,1.56,1.38.44,1.81,1.34,1.52,2.73-1.04,4.96-32.12,149.31-32.54,151.77-.45,2.68-1.12,3.26-3.77,3.26-23.32,0-46.65.01-69.97.02-2.47,0-2.67-.32-2.18-2.69.74-3.6,32.5-151.17,34-158.44.22-1.08.46-2.16.77-3.21.67-2.25.03-3.19-2.34-3.27-1.25-.04-46.42.03-67.75.03-2.73,0-3.01-.36-2.23-2.94.11-.35.23-.7.3-1.06,1.39-7.06,7.33-34.16,8.84-40.67.5-2.15.75-4.35,1.15-6.52.32-1.72,1.35-2.38,3.14-2.38,36.39.04,181.93.08,218.32.05Z"/>
  <path class="cls-1" d="m1871.73,828.82c-5.09-9.69-14-13.86-23.89-16.16-5.11-1.19-10.54-1.37-15.82-1.38-73.89-.11-151.6-.11-225.5-.13-.01,0,5.24,3.26,6.12,3.96,5.36,4.3,8.9,9.77,11.28,16.28,3.56,9.76,3.23,19.71,2.16,29.68-.57,5.24-11.24,52.23-12.83,59.71-.76,3.6-14.36,67.31-16.02,75.08-.69,3.23-1.59,6.42-2.27,9.65-1.66,7.91-3.22,15.84-4.9,23.75-.55,2.58-.26,3.03,2.3,3.02,23.55,0,47.1-.01,70.64.06,1.75,0,2.66-.59,2.99-2.19.62-2.95,1.13-5.93,1.8-8.87,1.44-6.38,9.16-40.22,11.39-50.79.51-2.43,1.62-3.23,4.07-3.21,12.47.1,24.95.09,37.43,0,2.14-.02,3.41.85,4.59,2.43,6.55,8.8,35.5,47.28,43.42,57.72,1.9,2.5,3.35,4.99,7.6,4.82,8.9-.36,60.23-.3,78.23-.3.37,0,1.2.05,1.92.06.54,0,.89-.57.65-1.05-.19-.38-.4-.75-.57-1-7.96-11.24-41.19-56.18-49.97-68.55-.5-.7-.85-1.83-.64-2.57.14-.48,1.43-.85,2.23-.88,6.47-.26,12.74-1.51,18.73-3.95,6.67-2.72,12.6-6.6,17.8-11.66,5.79-5.63,10.33-12.12,13.52-19.46,2.85-6.55,16.67-69.14,16.84-76.05.16-6.25-.31-12.31-3.3-18.01Zm-70.44,45.35c-.23,2.79-4.53,20.81-5.83,26.23-1.22,5.08-4.54,8.55-8.94,11.24-3.26,1.99-6.71,2.3-10.39,2.3-26.19-.06-52.38-.04-78.57-.04-.72,0-1.44.04-2.16.12-2.95.33-3.94-.41-3.43-3.22.8-4.41,1.94-8.75,2.89-13.14.57-2.66,1.03-5.34,1.57-8,.9-4.39,1.91-8.76,2.72-13.17.45-2.47-.24-2.9-2.69-3.56-6.33-1.72-12.6-3.63-18.88-5.54-.3-.09-.55-.31-.79-.58-.24-.26-.47-.56-.73-.79h0c.16-.1.31-.22.47-.34.46-.35.92-.72,1.44-.86.83-.23,1.76-.15,2.64-.15,18.97,0,37.94,0,56.91,0v.04c18.97,0,37.94.2,56.91-.13,5.12-.09,7.26,4.83,6.86,9.61Z"/>
  <path class="cls-1" d="m1600.08,847.66c-.39-3.78-.77-7.59-1.61-11.29-2.1-9.34-7.62-16.1-16.26-20.23-7.81-3.74-16.19-4.94-24.73-4.95-50.92-.05-101.85-.06-152.77.04-7.36.01-14.6.87-21.78,3.05-8.89,2.7-16.67,6.97-23.39,13.28-4.92,4.63-9.04,9.87-12.08,15.95-2.57,5.14-4.78,10.38-5.97,16.06-1.45,6.98-3.3,13.87-4.83,20.84-1.49,6.82-19.13,88.72-20.85,96.77-.66,3.09-1.62,6.15-1.92,9.28-.4,4.17-.34,8.39-.4,12.58-.08,5.46,1.81,10.51,4.23,15.18,5.16,9.94,14.36,14.67,24.83,16.57,6.91,1.25,14.09,1.33,21.16,1.37,23.99.15,114.62.2,135.95,0,10.34-.1,20.74.34,30.84-3.18,4.83-1.68,9.6-3.37,13.85-6.13,3.62-2.36,7.07-5.07,10.24-8.01,6.14-5.68,10.68-12.57,13.72-20.33,1.68-4.29,2.85-8.81,3.98-13.29,1.76-6.99,7.56-34.44,8.99-41.12,1.58-7.4,15-68.05,16.49-75.62,1.09-5.55,2.9-11.03,2.31-16.79Zm-77.38,25.62c-.78,4.56-1.94,9.05-2.94,13.57-.57,2.59-1.12,5.17-1.67,7.76-1.34,6.33-2.63,12.66-4.01,18.98-1.58,7.25-3.29,14.48-4.86,21.74-1.43,6.61-2.71,13.26-4.12,19.88-1.18,5.53-2.17,11.13-3.8,16.53-1.02,3.38-4.68,7.07-9.21,7.06-31.66-.11-63.31-.04-94.97-.07-4.85,0-7.65-3.87-6.56-8.65.89-3.87,1.51-7.8,2.34-11.69.79-3.74,1.72-7.44,2.54-11.17,1.49-6.82,2.93-13.65,4.43-20.46,1.59-7.24,3.24-14.47,4.82-21.72,1.36-6.25,2.63-12.52,3.98-18.77.48-2.22,1.04-4.43,1.65-6.62.7-2.52.29-3.15-2.21-3.59-1.66-.3-3.29-.81-4.91-1.29-8.25-2.45-16.5-4.91-24.73-7.43-.58-.18-1-.86-1.49-1.31.53-.44,1-1.09,1.6-1.25.9-.24,1.9-.17,2.86-.17,22.36,0,44.72,0,67.08,0v.05c22.51,0,45.01.03,67.52-.04,2.8,0,5.12.74,6.15,3.33.64,1.61.81,3.64.52,5.36Z"/>
  <path class="cls-1" d="m1072.28,831.74c-1.9-4.91-4.36-9.39-8.39-12.76-6.85-5.73-14.82-8.57-23.81-8.56-33.21.03-66.43,0-99.64.01-15.94,0-31.88,0-47.83,0-18.08,0-36.16,0-54.25-.05-1.98,0-2.84.6-3.17,2.69-.68,4.27-44.52,205.64-46.56,215.5-.59,2.82-.46,2.96,2.43,2.96,23.62-.02,47.24-.03,70.85-.01,2.93,0,3.79-.59,4.36-3.47.6-3.03,9.98-47.54,10.85-52.02.71-3.65,1.14-4.12,4.92-4.12,41.04,0,82.07.06,123.11-.07,8.92-.03,17.33-2.62,24.92-7.32,3.73-2.31,7.28-5,10.6-7.87,5.07-4.38,8.79-9.87,11.87-15.79,3.29-6.32,20.68-88.58,21.26-93.22.66-5.34.48-10.68-1.53-15.89Zm-72.59,39.27c-.48,4.36-1.62,8.65-2.49,12.96-.81,4.03-1.61,8.07-2.49,12.09-1.09,5.02-2.04,10.09-3.45,15.03-1.39,4.85-5.05,7.3-10.15,7.3-29.29.03-58.58.03-87.88.04-2.91,0-3.49-.91-2.75-3.67.86-3.19,1.59-6.43,2.26-9.67,1.42-6.84,2.74-13.7,4.14-20.54.53-2.58,1.21-5.13,1.78-7.71.39-1.76-.33-2.7-2.1-3.21-7.63-2.2-15.24-4.48-22.83-6.79-.76-.23-1.39-.9-2.08-1.36.81-.5,1.6-1.37,2.45-1.43,2.49-.19,5.01-.07,7.52-.07,17.63,0,91.86-.03,111.34-.03,4.91,0,7.26,2.19,6.73,7.07Z"/>
  <path class="cls-1" d="m760.57,1028.51c-.51-20.7-1.17-41.41-1.53-62.11-.41-23.59-2.2-124.57-2.72-151.47-.08-4.11-.03-4.08-4.01-4.08-44.95.03-89.91.04-134.86.05-3.64,0-3.88.18-5.29,3.64-1.31,3.2-92.19,203.62-96.27,212.67-2.11,4.69-2.04,4.72,3.15,4.72,21.33.03,42.66.07,64,.04.98,0,2.34-.42,2.87-1.13,1.12-1.51,1.87-3.32,2.66-5.06,1.45-3.21,9.67-20.95,12.28-26.62,1.47-3.18,1.52-3.33,5.06-3.34,25.76,0,51.52,0,77.29,0,.44,0,.89,0,1.33.01,1.8,0,2.71.98,2.87,2.7.09.95.12,1.91.13,2.87.13,9.29.29,18.57.36,27.86.01,1.92.55,2.74,2.68,2.73,22.22-.08,44.44-.08,66.65-.08,3.37,0,3.43.06,3.35-3.43Zm-72.65-89.39c0,4.3-.52,4.79-4.83,4.79-18.08,0-36.16.02-54.24.04-3.2,0-3.98-1.39-2.64-4.32,2.79-6.08,5.48-12.2,8.19-18.32,2.8-6.32,5.57-12.64,8.34-18.97,2.53-5.79,5.02-11.59,7.55-17.38,1.03-2.35,2.14-4.67,3.19-7.01,1.02-2.28.61-2.93-1.73-3.6-4.24-1.21-8.44-2.57-12.66-3.84-3.73-1.12-7.49-2.16-11.2-3.35-.7-.23-1.23-1-1.83-1.53.72-.43,1.42-1.17,2.17-1.22,2.28-.16,4.57-.06,6.86-.06,16.38,0,32.76,0,49.15-.02,2.77,0,3.41.58,3.42,3.36.02,12.09.29,59.7.29,71.42Z"/>
</svg>